#!OML:ASF I:\Actors\actors\Patient Classification 2\Patient 1\Session 1\actor1.ASF
:FULLY-SPECIFIED
:DEGREES
659
root -0.513554 18.1523 4.52046 16.3878 -0.180635 1.76943
lowerback 35.4615 1.0445 0.612733
upperback 1.07002 1.8329 1.35402
thorax -17.0416 0.779127 0.335236
lowerneck -21.0918 -3.23896 -3.53783
upperneck 5.6022 -3.61633 2.08034
head 5.13404 -1.70315 0.851636
rclavicle -1.31198e-014 -1.98785e-014
rhumerus -23.9962 31.835 -93.8248
rradius 111.662
rwrist -0.581609
rhand -24.9365 -15.8408
rfingers 7.12502
rthumb 1.57287 -45.8147
lclavicle -1.31198e-014 -1.98785e-014
lhumerus -15.9174 -36.7418 97.3052
lradius 115.856
lwrist 11.0307
lhand -23.6036 -67.9493
lfingers 7.12502
lthumb 2.86016 -37.9887
rfemur -32.6664 -2.71301 11.0245
rtibia 36.0578
rfoot -22.9216 -5.36161
rtoes -15.9223
lfemur -37.6165 7.01259 -17.3882
ltibia 42.3894
lfoot -19.3007 1.52442
ltoes -56.481
660
root -0.520354 18.137 4.47611 16.3278 -0.119767 1.69197
lowerback 35.4101 1.08326 0.551184
upperback 1.30971 1.85548 1.37899
thorax -16.732 0.796363 0.388395
lowerneck -21.7233 -3.29353 -3.55074
upperneck 5.65027 -3.67208 2.16844
head 5.24799 -1.71964 0.868372
rclavicle -3.97569e-016 6.36111e-015
rhumerus -16.0939 31.4537 -90.0713
rradius 109.892
rwrist 2.69435
rhand -27.6028 -19.5666
rfingers 7.12502
rthumb -1.00225 -49.544
lclavicle -3.97569e-016 6.36111e-015
lhumerus -7.9449 -35.0876 94.5589
lradius 113.209
lwrist 5.96221
lhand -25.4276 -66.9878
lfingers 7.12502
lthumb 1.09863 -37.0109
rfemur -32.988 -2.56047 11.0739
rtibia 36.5431
rfoot -23.0786 -5.36473
rtoes -15.4581
lfemur -37.9276 7.10849 -17.3348
ltibia 42.7452
lfoot -19.2811 1.49269
ltoes -56.4531
661
root -0.519961 18.1309 4.43664 16.3108 0.140325 1.66529
lowerback 35.3867 0.939785 0.655598
upperback 1.43088 1.7145 1.39641
thorax -16.5715 0.731131 0.416207
lowerneck -22.1958 -3.26882 -3.55105
upperneck 5.73926 -3.61974 2.15005
head 5.34546 -1.69222 0.862393
rclavicle 1.27222e-014 -3.97569e-015
rhumerus -8.74055 30.0617 -86.7855
rradius 107.553
rwrist 8.30868
rhand -26.0503 -22.7812
rfingers 7.12502
rthumb 0.497169 -52.7604
lclavicle 1.27222e-014 -3.97569e-015
lhumerus -0.828225 -33.1469 92.0628
lradius 110.158
lwrist 2.35018
lhand -26.4831 -64.9955
lfingers 7.12502
lthumb 0.0791655 -35.0158
rfemur -33.166 -2.63057 11.1176
rtibia 36.7874
rfoot -23.1649 -5.41133
rtoes -15.0248
lfemur -38.1802 6.84999 -17.2574
ltibia 42.9096
lfoot -19.2185 1.56165
ltoes -56.3544
662
root -0.516191 18.1325 4.40436 16.3679 0.608919 1.74846
lowerback 35.1696 0.659576 0.789323
upperback 1.53485 1.40984 1.41617
thorax -16.3507 0.595731 0.505163
lowerneck -22.5763 -3.15832 -3.40802
upperneck 5.84492 -3.47905 1.97805
head 5.42652 -1.63113 0.79549
rclavicle -8.34896e-015 6.36111e-015
rhumerus -1.98502 28.6749 -84.1534
rradius 104.698
rwrist 12.8463
rhand -27.6948 -27.6217
rfingers 7.12502
rthumb -1.09119 -57.5987
lclavicle -8.34896e-015 6.36111e-015
lhumerus 5.67921 -30.9914 89.9437
lradius 106.962
lwrist -0.447684
lhand -26.6695 -61.0867
lfingers 7.12502
lthumb -0.100904 -31.107
rfemur -33.2032 -2.89202 11.0868
rtibia 36.7636
rfoot -23.2436 -5.51273
rtoes -14.5263
lfemur -38.4311 6.3613 -17.2489
ltibia 42.9115
lfoot -19.0713 1.6472
ltoes -56.2639
663
root -0.511484 18.142 4.37721 16.4106 0.940109 1.80436
lowerback 34.897 0.420754 0.923755
upperback 1.66703 1.1505 1.40856
thorax -16.0735 0.478169 0.541639
lowerneck -22.9589 -3.08512 -3.3851
upperneck 5.94342 -3.37212 1.95501
head 5.51171 -1.57778 0.791855
rclavicle 8.74653e-015 7.15625e-015
rhumerus 4.29035 27.3698 -82.1443
rradius 101.773
rwrist 15.5649
rhand -28.0786 -31.5469
rfingers 7.12502
rthumb -1.46185 -61.5216
lclavicle 8.74653e-015 7.15625e-015
lhumerus 11.7924 -28.788 88.0354
lradius 103.285
lwrist -3.39497
lhand -26.2006 -57.1055
lfingers 7.12502
lthumb 0.351998 -27.1261
rfemur -33.1398 -3.09519 11.0721
rtibia 36.5121
rfoot -23.1795 -5.68036
rtoes -14.4374
lfemur -38.5453 5.95939 -17.2325
ltibia 42.7521
lfoot -18.8697 1.75882
ltoes -56.1914
664
root -0.515522 18.1618 4.34939 16.2967 0.39339 1.60022
lowerback 35.0249 0.617842 0.68278
upperback 1.72211 1.3016 1.38402
thorax -16.0664 0.557333 0.577143
lowerneck -23.2956 -3.09402 -3.54044
upperneck 6.0963 -3.35499 2.1748
head 5.61762 -1.55306 0.88485
rclavicle 7.95139e-015 -1.59028e-015
rhumerus 9.77061 26.4096 -80.6526
rradius 98.9791
rwrist 16.9289
rhand -29.7552 -34.5941
rfingers 7.12502
rthumb -3.08101 -64.5516
lclavicle 7.95139e-015 -1.59028e-015
lhumerus 17.4963 -26.6463 86.317
lradius 99.1277
lwrist -6.99481
lhand -25.3291 -54.243
lfingers 7.12502
lthumb 1.1937 -24.2666
rfemur -33.0409 -2.67783 11.204
rtibia 36.0234
rfoot -22.7089 -5.8572
rtoes -15.096
lfemur -38.2606 6.27544 -17.0787
ltibia 42.4373
lfoot -18.754 1.91179
ltoes -55.9741
